<?xml version="1.0" encoding="UTF-8"?>
<!DOCTYPE svg PUBLIC "-//W3C//DTD SVG 1.1//EN" "http://www.w3.org/Graphics/SVG/1.1/DTD/svg11.dtd">
<!-- Creator: CorelDRAW 2021.5 -->
<svg xmlns="http://www.w3.org/2000/svg" xml:space="preserve" width="8.5in" height="11in" version="1.1" style="shape-rendering:geometricPrecision; text-rendering:geometricPrecision; image-rendering:optimizeQuality; fill-rule:evenodd; clip-rule:evenodd"
viewBox="0 0 8500 11000"
 xmlns:xlink="http://www.w3.org/1999/xlink"
 xmlns:xodm="http://www.corel.com/coreldraw/odm/2003">
 <defs>
  <style type="text/css">
   <![CDATA[
    .fil0 {fill:#FEFEFE;fill-rule:nonzero}
   ]]>
  </style>
    <clipPath id="id0">
     <path d="M3000.26 6786.44l0 -137.94 442.18 -68.03 -442.18 205.97z"/>
    </clipPath>
    <clipPath id="id1">
     <path d="M2711.15 6610.7l0 -175.74 731.29 83.15 -731.29 92.59z"/>
    </clipPath>
    <clipPath id="id2">
     <path d="M2809.41 5444.8l-251.32 -39.68 0 924.04 884.35 136.06c0,0 -258.88,-232.43 -633.03,-251.32 3.78,3.78 0,-769.09 0,-769.09z"/>
    </clipPath>
    <clipPath id="id3">
     <path d="M2900.11 5223.71l0 907.03c0,0 347.7,68.03 542.33,228.65 0,-3.78 0,-854.12 0,-854.12 0,0 -83.14,-171.96 -542.33,-281.56z"/>
    </clipPath>
    <clipPath id="id4">
     <path d="M3519.92 6465.2l105.82 0 0 -120.94 62.36 0c100.15,0 151.17,-75.59 151.17,-149.28 0,-73.7 -51.02,-147.39 -153.06,-147.39l-166.29 0 0 417.61zm105.82 -215.42l0 -103.93 60.47 0c64.25,0 64.25,103.93 0,103.93l-60.47 0zm415.72 -202.19l-96.37 0 -145.5 417.61 113.38 0 26.45 -83.15 111.49 0 26.45 83.15 113.38 0 -149.28 -417.61zm-79.37 239.99l32.13 -122.83 1.89 0 30.23 122.83 -64.25 0zm504.54 -139.83l0 -100.15 -328.8 0 0 100.15 111.49 0 0 317.46 105.82 0 0 -317.46 111.49 0zm136.06 160.62l119.05 0 0 156.84 107.71 0 0 -417.61 -107.71 0 0 158.73 -119.05 0 0 -158.73 -105.82 0 0 417.61 105.82 0 0 -156.84z"/>
    </clipPath>
    <clipPath id="id5">
     <path d="M3771.24 5919.09l0 -164.4 145.5 -253.21 -122.83 0 -75.59 153.06 -75.59 -153.06 -122.83 0 145.5 253.21 0 164.4 105.82 0zm130.39 -137.94c0,96.37 86.93,143.61 173.85,143.61 86.93,0 171.96,-47.24 171.96,-143.61l0 -143.61c0,-94.48 -86.93,-141.72 -173.85,-141.72 -85.03,0 -171.96,47.24 -171.96,141.72l0 143.61zm105.82 -143.61c0,-30.24 32.13,-47.24 66.14,-47.24 34.02,0 68.03,15.11 68.03,47.24l0 143.61c0,30.23 -32.12,45.35 -66.14,45.35 -34.01,0 -68.03,-15.12 -68.03,-45.35l0 -143.61zm389.27 -136.06l-107.71 0 0 277.78c0,196.52 334.46,196.52 334.46,0l0 -277.78 -107.71 0 0 277.78c0,66.14 -119.05,66.14 -119.05,0l0 -277.78zm500.76 417.61l130.39 0 -113.38 -143.61c51.02,-17.01 81.26,-60.47 81.26,-137.94 -1.89,-96.37 -68.03,-136.06 -154.95,-136.06l-166.29 0 0 417.61 105.82 0 0 -132.27 18.9 0 98.26 132.27zm-117.16 -224.87l0 -94.48 62.36 0c66.14,0 66.14,94.48 0,94.48l-62.36 0zm338.25 154.95c39.68,51.02 92.59,75.58 143.61,75.58 75.59,0 160.62,-43.46 164.4,-124.72 5.67,-103.93 -69.92,-128.5 -143.61,-143.61 -32.13,-5.67 -54.8,-18.9 -56.69,-37.8 1.89,-49.13 77.48,-51.02 120.94,-3.78l69.92 -52.91c-43.46,-52.91 -92.59,-66.14 -143.61,-66.14 -75.59,0 -151.17,41.57 -151.17,124.72 0,79.37 62.36,120.94 128.49,132.28 34.02,5.67 73.7,18.9 71.81,41.57 -1.89,45.35 -94.48,43.46 -136.06,-7.56l-68.02 62.36zm646.26 -247.55l0 -102.04 -328.8 0 0 102.04 109.6 0 0 317.46 107.71 0 0 -317.46 111.49 0zm134.17 -100.15l-107.71 0 0 277.78c0,196.52 332.57,196.52 334.46,0l0 -277.78 -107.71 0 0 277.78c0,66.14 -119.05,66.14 -119.05,0l0 -277.78zm275.89 0l0 417.61 156.84 0c85.04,0 162.51,-41.57 162.51,-137.94l0 -139.83c0,-98.26 -77.48,-139.83 -162.51,-139.83l-156.84 0zm107.71 317.46l0 -219.2 52.91 0c35.91,0 52.91,17 52.91,43.46l0 130.39c0,28.34 -17,45.35 -52.91,45.35l-52.91 0zm447.85 100.15l0 -164.4 145.5 -253.21 -122.83 0 -75.58 153.06 -75.59 -153.06 -122.83 0 145.5 253.21 0 164.4 105.82 0z"/>
    </clipPath>
 </defs>
 <g id="Layer_x0020_1">
  <metadata id="CorelCorpID_0Corel-Layer"/>
  <g id="_2872475168112">
   <g style="clip-path:url(#id0)">
    <image x="1498" y="2746.38" width="6666.67" height="6666.67" xlink:href="ysp white_Images\ysp white_ImgID1.png"/>
   </g>
   <g style="clip-path:url(#id1)">
    <image x="1498" y="2746.38" width="6666.67" height="6666.67" xlink:href="ysp white_Images\ysp white_ImgID2.png"/>
   </g>
   <g style="clip-path:url(#id2)">
    <image x="1498" y="2746.38" width="6666.67" height="6666.67" xlink:href="ysp white_Images\ysp white_ImgID3.png"/>
   </g>
   <g style="clip-path:url(#id3)">
    <image x="1498" y="2746.38" width="6666.67" height="6666.67" xlink:href="ysp white_Images\ysp white_ImgID4.png"/>
   </g>
   <path class="fil0" d="M3519.73 6465.52l105.58 0 0 -122.14 61.91 0c101.06,0 152.43,-73.79 152.43,-148.25 0,-73.79 -50.86,-147.57 -152.93,-147.57l-166.98 0 0 417.96zm105.58 -216.01l0 -103.41 61.41 0c63.75,-0.5 63.75,103.91 0,103.41l-61.41 0z"/>
   <path class="fil0" d="M4042.01 6047.55l-96.21 0 -145.73 417.96 113.27 0 25.94 -83.83 111.6 0 27.11 83.83 113.44 0 -149.42 -417.96zm-78.97 240.27l30.62 -122.15 3.01 0 28.78 122.15 -62.41 0z"/>
   <polygon class="fil0" points="4466.39,6147.44 4466.39,6047.05 4137.61,6047.05 4137.61,6147.44 4248.71,6147.44 4248.71,6465.52 4355.46,6465.52 4355.46,6147.44 "/>
   <g style="clip-path:url(#id4)">
    <image x="1498" y="2746.38" width="6666.67" height="6666.67" xlink:href="ysp white_Images\ysp white_ImgID5.png"/>
   </g>
   <polygon class="fil0" points="4602.29,6307.9 4722.59,6307.9 4722.59,6465.52 4828.84,6465.52 4828.84,6047.55 4722.59,6047.55 4722.59,6205.83 4602.29,6205.83 4602.29,6047.55 4496.04,6047.55 4496.04,6465.52 4602.29,6465.52 "/>
   <polygon class="fil0" points="3770.96,5918.85 3770.96,5754.21 3917.37,5500.89 3793.38,5500.89 3717.92,5654.48 3642.29,5500.89 3519.48,5500.89 3665.38,5754.21 3665.38,5918.85 "/>
   <path class="fil0" d="M3901.5 5781.31c0,95.7 86.67,143.39 173.51,143.39 86.67,0 172.84,-47.69 172.84,-143.39l0 -142.89c0,-95.54 -86.67,-143.39 -173.51,-143.39 -86.67,0 -172.84,47.18 -172.84,143.39l0 142.89zm105.58 -142.89c0,-30.62 33.13,-47.18 66.09,-47.18 34.3,0 69.1,14.72 69.1,47.18l0 142.89c0,30.12 -33.63,45.51 -67.26,45.51 -33.63,0 -67.93,-14.89 -67.93,-45.51l0 -142.89z"/>
   <path class="fil0" d="M4396.66 5500.89l-106.92 0 0 278.09c-0.5,195.93 332.97,195.93 333.64,0l0 -278.09 -106.92 0 0 278.09c-0.5,67.26 -119.8,67.26 -119.8,0l0 -278.09z"/>
   <path class="fil0" d="M4896.69 5918.85l131.51 0 -113.94 -143.39c50.87,-16.06 82.15,-59.73 82.15,-137.04 -2.34,-97.88 -69.1,-137.54 -155.27,-137.54l-166.98 0 0 417.96 106.75 0 0 -132.85 18.91 0 96.88 132.85zm-115.79 -223.7l0 -95.71 62.08 0c66.59,0 66.59,95.71 0,95.71l-62.08 0z"/>
   <path class="fil0" d="M5119.19 5849.24c38.82,50.2 92.02,75.46 142.22,75.46 76.63,0 161.63,-44.17 165.31,-125.15 4.69,-102.57 -69.77,-128.67 -144.06,-142.22 -32.46,-7.03 -54.38,-18.91 -55.55,-38.99 1.84,-48.35 76.8,-50.19 120.47,-3.51l69.11 -53.04c-43.17,-52.54 -92.2,-66.76 -142.89,-66.76 -76.8,0 -151.09,43.17 -151.09,125.15 0,79.65 61.41,122.14 128.67,132.85 34.13,4.69 72.62,18.24 71.44,41.83 -3.01,44.84 -95.04,42.5 -137.03,-8.2l-66.59 62.57z"/>
   <polygon class="fil0" points="5764.23,5600.78 5764.23,5500.39 5435.44,5500.39 5435.44,5600.78 5546.55,5600.78 5546.55,5918.85 5653.3,5918.85 5653.3,5600.78 "/>
   <path class="fil0" d="M5898.28 5500.89l-106.92 0 0 278.09c-0.5,195.93 332.97,195.93 333.64,0l0 -278.09 -106.92 0 0 278.09c-0.5,67.26 -119.8,67.26 -119.8,0l0 -278.09z"/>
   <path class="fil0" d="M6175.77 5500.89l0 417.96 156.28 0c83.83,0.67 162.47,-41.33 162.47,-137.54l0 -140.55c0,-97.38 -78.64,-139.88 -162.47,-139.88l-156.28 0zm106.25 318.74l0 -220.19 53.71 0c35.3,0 52.54,17.23 52.54,44.34l0 130.51c0,27.11 -16.57,45.34 -52.54,45.34l-53.71 0z"/>
   <g style="clip-path:url(#id5)">
    <image x="1498" y="2746.38" width="6666.67" height="6666.67" xlink:href="ysp white_Images\ysp white_ImgID6.png"/>
   </g>
   <polygon class="fil0" points="6729.93,5918.85 6729.93,5754.21 6876.34,5500.89 6752.35,5500.89 6676.89,5654.48 6601.26,5500.89 6478.45,5500.89 6624.35,5754.21 6624.35,5918.85 "/>
  </g>
 </g>
</svg>
